<?xml version="1.0" encoding="UTF-8"?>
<!DOCTYPE svg PUBLIC "-//W3C//DTD SVG 1.1//EN" "http://www.w3.org/Graphics/SVG/1.1/DTD/svg11.dtd">
<svg version="1.2" width="153.46mm" height="153.46mm" viewBox="2217 4757 15346 15346" preserveAspectRatio="xMidYMid" fill-rule="evenodd" stroke-width="28.222" stroke-linejoin="round" xmlns="http://www.w3.org/2000/svg" xmlns:ooo="http://xml.openoffice.org/svg/export" xmlns:xlink="http://www.w3.org/1999/xlink" xmlns:presentation="http://sun.com/xmlns/staroffice/presentation" xmlns:smil="http://www.w3.org/2001/SMIL20/" xmlns:anim="urn:oasis:names:tc:opendocument:xmlns:animation:1.0" xml:space="preserve">
 <defs class="ClipPathGroup">
  <clipPath id="presentation_clip_path" clipPathUnits="userSpaceOnUse">
   <rect x="2217" y="4757" width="15346" height="15346"/>
  </clipPath>
  <clipPath id="presentation_clip_path_shrink" clipPathUnits="userSpaceOnUse">
   <rect x="2232" y="4772" width="15316" height="15316"/>
  </clipPath>
 </defs>
 <defs class="TextShapeIndex">
  <g ooo:slide="id1" ooo:id-list="id3 id4 id5 id6 id7 id8 id9 id10 id11 id12 id13 id14 id15 id16 id17 id18 id19 id20 id21 id22 id23 id24 id25 id26 id27 id28 id29 id30 id31 id32 id33 id34 id35 id36 id37 id38 id39 id40 id41 id42 id43 id44 id45 id46 id47 id48 id49 id50 id51 id52 id53 id54 id55 id56 id57 id58 id59 id60 id61 id62 id63 id64"/>
 </defs>
 <defs class="EmbeddedBulletChars">
  <g id="bullet-char-template-57356" transform="scale(0.00048828125,-0.00048828125)">
   <path d="M 580,1141 L 1163,571 580,0 -4,571 580,1141 Z"/>
  </g>
  <g id="bullet-char-template-57354" transform="scale(0.00048828125,-0.00048828125)">
   <path d="M 8,1128 L 1137,1128 1137,0 8,0 8,1128 Z"/>
  </g>
  <g id="bullet-char-template-10146" transform="scale(0.00048828125,-0.00048828125)">
   <path d="M 174,0 L 602,739 174,1481 1456,739 174,0 Z M 1358,739 L 309,1346 659,739 1358,739 Z"/>
  </g>
  <g id="bullet-char-template-10132" transform="scale(0.00048828125,-0.00048828125)">
   <path d="M 2015,739 L 1276,0 717,0 1260,543 174,543 174,936 1260,936 717,1481 1274,1481 2015,739 Z"/>
  </g>
  <g id="bullet-char-template-10007" transform="scale(0.00048828125,-0.00048828125)">
   <path d="M 0,-2 C -7,14 -16,27 -25,37 L 356,567 C 262,823 215,952 215,954 215,979 228,992 255,992 264,992 276,990 289,987 310,991 331,999 354,1012 L 381,999 492,748 772,1049 836,1024 860,1049 C 881,1039 901,1025 922,1006 886,937 835,863 770,784 769,783 710,716 594,584 L 774,223 C 774,196 753,168 711,139 L 727,119 C 717,90 699,76 672,76 641,76 570,178 457,381 L 164,-76 C 142,-110 111,-127 72,-127 30,-127 9,-110 8,-76 1,-67 -2,-52 -2,-32 -2,-23 -1,-13 0,-2 Z"/>
  </g>
  <g id="bullet-char-template-10004" transform="scale(0.00048828125,-0.00048828125)">
   <path d="M 285,-33 C 182,-33 111,30 74,156 52,228 41,333 41,471 41,549 55,616 82,672 116,743 169,778 240,778 293,778 328,747 346,684 L 369,508 C 377,444 397,411 428,410 L 1163,1116 C 1174,1127 1196,1133 1229,1133 1271,1133 1292,1118 1292,1087 L 1292,965 C 1292,929 1282,901 1262,881 L 442,47 C 390,-6 338,-33 285,-33 Z"/>
  </g>
  <g id="bullet-char-template-9679" transform="scale(0.00048828125,-0.00048828125)">
   <path d="M 813,0 C 632,0 489,54 383,161 276,268 223,411 223,592 223,773 276,916 383,1023 489,1130 632,1184 813,1184 992,1184 1136,1130 1245,1023 1353,916 1407,772 1407,592 1407,412 1353,268 1245,161 1136,54 992,0 813,0 Z"/>
  </g>
  <g id="bullet-char-template-8226" transform="scale(0.00048828125,-0.00048828125)">
   <path d="M 346,457 C 273,457 209,483 155,535 101,586 74,649 74,723 74,796 101,859 155,911 209,963 273,989 346,989 419,989 480,963 531,910 582,859 608,796 608,723 608,648 583,586 532,535 482,483 420,457 346,457 Z"/>
  </g>
  <g id="bullet-char-template-8211" transform="scale(0.00048828125,-0.00048828125)">
   <path d="M -4,459 L 1135,459 1135,606 -4,606 -4,459 Z"/>
  </g>
  <g id="bullet-char-template-61548" transform="scale(0.00048828125,-0.00048828125)">
   <path d="M 173,740 C 173,903 231,1043 346,1159 462,1274 601,1332 765,1332 928,1332 1067,1274 1183,1159 1299,1043 1357,903 1357,740 1357,577 1299,437 1183,322 1067,206 928,148 765,148 601,148 462,206 346,322 231,437 173,577 173,740 Z"/>
  </g>
 </defs>
 <defs class="TextEmbeddedBitmaps"/>
 <g class="SlideGroup">
  <g>
   <g id="container-id1">
    <g id="id1" class="Slide" clip-path="url(#presentation_clip_path)">
     <g class="Page">
      <g class="com.sun.star.drawing.CustomShape">
       <g id="id3">
        <rect class="BoundingBox" stroke="none" fill="none" x="2217" y="4757" width="15347" height="15347"/>
        <path fill="rgb(0,0,0)" stroke="none" d="M 9890,20050 L 2270,20050 2270,4810 17510,4810 17510,20050 9890,20050 Z"/>
        <path fill="none" stroke="rgb(255,255,255)" stroke-width="106" stroke-linejoin="round" d="M 9890,20050 L 2270,20050 2270,4810 17510,4810 17510,20050 9890,20050 Z"/>
       </g>
      </g>
      <g class="Group">
       <g class="com.sun.star.drawing.CustomShape">
        <g id="id4">
         <rect class="BoundingBox" stroke="none" fill="none" x="3540" y="8620" width="2541" height="7621"/>
         <path fill="rgb(0,101,189)" stroke="none" d="M 4810,16240 L 3540,16240 3540,8620 6080,8620 6080,16240 4810,16240 Z"/>
        </g>
       </g>
       <g class="com.sun.star.drawing.CustomShape">
        <g id="id5">
         <rect class="BoundingBox" stroke="none" fill="none" x="3540" y="13700" width="5081" height="2541"/>
         <path fill="rgb(0,101,189)" stroke="none" d="M 6080,16240 L 3540,16240 3540,13700 8620,13700 8620,16240 6080,16240 Z"/>
        </g>
       </g>
      </g>
      <g class="Group">
       <g class="com.sun.star.drawing.CustomShape">
        <g id="id6">
         <rect class="BoundingBox" stroke="none" fill="none" x="13702" y="8620" width="2539" height="7617"/>
         <path fill="rgb(162,173,0)" stroke="none" d="M 14971,16236 L 13702,16236 13702,8620 16240,8620 16240,16236 14971,16236 Z"/>
        </g>
       </g>
       <g class="com.sun.star.drawing.CustomShape">
        <g id="id7">
         <rect class="BoundingBox" stroke="none" fill="none" x="11160" y="13698" width="5077" height="2540"/>
         <path fill="rgb(162,173,0)" stroke="none" d="M 13698,16237 L 11160,16237 11160,13698 16236,13698 16236,16237 13698,16237 Z"/>
        </g>
       </g>
      </g>
      <g class="com.sun.star.drawing.CustomShape">
       <g id="id8">
        <rect class="BoundingBox" stroke="none" fill="none" x="6080" y="11160" width="7621" height="2541"/>
        <path fill="rgb(227,114,32)" stroke="none" d="M 9890,13700 L 6080,13700 6080,11160 13700,11160 13700,13700 9890,13700 Z"/>
       </g>
      </g>
      <g class="com.sun.star.drawing.CustomShape">
       <g id="id9">
        <rect class="BoundingBox" stroke="none" fill="none" x="6080" y="16240" width="7621" height="2541"/>
        <path fill="rgb(227,114,32)" stroke="none" d="M 9890,18780 L 6080,18780 6080,16240 13700,16240 13700,18780 9890,18780 Z"/>
       </g>
      </g>
      <g class="com.sun.star.drawing.CustomShape">
       <g id="id10">
        <rect class="BoundingBox" stroke="none" fill="none" x="8619" y="11159" width="2543" height="7622"/>
        <path fill="rgb(227,114,32)" stroke="none" d="M 11160,14970 L 11161,18780 8621,18780 8620,11160 11160,11160 11160,14970 Z"/>
       </g>
      </g>
      <g class="Group">
       <g class="Group">
        <g class="Group">
         <g class="Group">
          <g class="com.sun.star.drawing.CustomShape">
           <g id="id11">
            <rect class="BoundingBox" stroke="none" fill="none" x="5674" y="8483" width="3340" height="131"/>
            <path fill="rgb(255,255,255)" fill-opacity="0.361" stroke="rgb(255,255,255)" stroke-opacity="0.361" d="M 7343,8483 L 9012,8613 5674,8613 7343,8483 Z M 5674,8483 L 5674,8483 Z M 9013,8613 L 9013,8613 Z"/>
           </g>
          </g>
          <g class="com.sun.star.drawing.CustomShape">
           <g id="id12">
            <rect class="BoundingBox" stroke="none" fill="none" x="5674" y="8612" width="3340" height="132"/>
            <path fill="rgb(255,255,255)" fill-opacity="0.361" stroke="rgb(255,255,255)" stroke-opacity="0.361" d="M 7343,8743 L 9012,8612 5674,8612 7343,8743 Z M 5674,8743 L 5674,8743 Z M 9013,8612 L 9013,8612 Z"/>
           </g>
          </g>
         </g>
         <g class="Group">
          <g class="com.sun.star.drawing.CustomShape">
           <g id="id13">
            <rect class="BoundingBox" stroke="none" fill="none" x="6266" y="8540" width="2140" height="74"/>
            <path fill="rgb(255,255,255)" fill-opacity="0.361" stroke="rgb(255,255,255)" stroke-opacity="0.361" d="M 7335,8540 L 8405,8613 6266,8613 7335,8540 Z M 6266,8540 L 6266,8540 Z M 8405,8613 L 8405,8613 Z"/>
           </g>
          </g>
          <g class="com.sun.star.drawing.CustomShape">
           <g id="id14">
            <rect class="BoundingBox" stroke="none" fill="none" x="6266" y="8611" width="2140" height="77"/>
            <path fill="rgb(255,255,255)" fill-opacity="0.361" stroke="rgb(255,255,255)" stroke-opacity="0.361" d="M 7335,8686 L 8405,8611 6266,8611 7335,8686 Z M 6266,8686 L 6266,8686 Z M 8405,8611 L 8405,8611 Z"/>
           </g>
          </g>
         </g>
        </g>
        <g class="Group">
         <g class="Group">
          <g class="com.sun.star.drawing.CustomShape">
           <g id="id15">
            <rect class="BoundingBox" stroke="none" fill="none" x="7214" y="6943" width="131" height="3339"/>
            <path fill="rgb(255,255,255)" fill-opacity="0.361" stroke="rgb(255,255,255)" stroke-opacity="0.361" d="M 7214,8612 L 7344,6943 7344,10281 7214,8612 Z M 7214,10281 L 7214,10281 Z M 7344,6943 L 7344,6943 Z"/>
           </g>
          </g>
          <g class="com.sun.star.drawing.CustomShape">
           <g id="id16">
            <rect class="BoundingBox" stroke="none" fill="none" x="7340" y="6942" width="133" height="3339"/>
            <path fill="rgb(255,255,255)" fill-opacity="0.361" stroke="rgb(255,255,255)" stroke-opacity="0.361" d="M 7472,8611 L 7341,6942 7341,10280 7472,8611 Z M 7472,10280 L 7472,10280 Z M 7341,6942 L 7341,6942 Z"/>
           </g>
          </g>
         </g>
         <g class="Group">
          <g class="com.sun.star.drawing.CustomShape">
           <g id="id17">
            <rect class="BoundingBox" stroke="none" fill="none" x="7268" y="7550" width="75" height="2142"/>
            <path fill="rgb(255,255,255)" fill-opacity="0.361" stroke="rgb(255,255,255)" stroke-opacity="0.361" d="M 7268,8621 L 7341,7551 7341,9691 7268,8621 Z M 7268,9691 L 7268,9691 Z M 7341,7551 L 7341,7551 Z"/>
           </g>
          </g>
          <g class="com.sun.star.drawing.CustomShape">
           <g id="id18">
            <rect class="BoundingBox" stroke="none" fill="none" x="7339" y="7550" width="76" height="2142"/>
            <path fill="rgb(255,255,255)" fill-opacity="0.361" stroke="rgb(255,255,255)" stroke-opacity="0.361" d="M 7414,8620 L 7339,7550 7339,9690 7414,8620 Z M 7414,9690 L 7414,9690 Z M 7339,7550 L 7339,7550 Z"/>
           </g>
          </g>
         </g>
        </g>
       </g>
       <g class="Group">
        <g class="Group">
         <g class="Group">
          <g class="com.sun.star.drawing.CustomShape">
           <g id="id19">
            <rect class="BoundingBox" stroke="none" fill="none" x="6753" y="8069" width="1132" height="1087"/>
            <path fill="rgb(255,255,255)" fill-opacity="0.361" stroke="rgb(255,255,255)" stroke-opacity="0.361" d="M 7296,8575 L 7882,8069 6797,9155 7296,8575 Z M 6754,9117 L 6754,9117 Z M 7883,8070 L 7883,8070 Z"/>
           </g>
          </g>
          <g class="com.sun.star.drawing.CustomShape">
           <g id="id20">
            <rect class="BoundingBox" stroke="none" fill="none" x="6796" y="8071" width="1086" height="1128"/>
            <path fill="rgb(255,255,255)" fill-opacity="0.361" stroke="rgb(255,255,255)" stroke-opacity="0.361" d="M 7380,8656 L 7880,8071 6796,9155 7380,8656 Z M 6839,9198 L 6839,9198 Z M 7880,8071 L 7880,8071 Z"/>
           </g>
          </g>
         </g>
         <g class="Group">
          <g class="com.sun.star.drawing.CustomShape">
           <g id="id21">
            <rect class="BoundingBox" stroke="none" fill="none" x="6963" y="8271" width="721" height="697"/>
            <path fill="rgb(255,255,255)" fill-opacity="0.361" stroke="rgb(255,255,255)" stroke-opacity="0.361" d="M 7311,8593 L 7683,8272 6988,8966 7311,8593 Z M 6963,8940 L 6963,8940 Z M 7683,8272 L 7683,8272 Z"/>
           </g>
          </g>
          <g class="com.sun.star.drawing.CustomShape">
           <g id="id22">
            <rect class="BoundingBox" stroke="none" fill="none" x="6988" y="8270" width="696" height="719"/>
            <path fill="rgb(255,255,255)" fill-opacity="0.361" stroke="rgb(255,255,255)" stroke-opacity="0.361" d="M 7360,8641 L 7683,8270 6988,8965 7360,8641 Z M 7013,8988 L 7013,8988 Z M 7683,8270 L 7683,8270 Z"/>
           </g>
          </g>
         </g>
        </g>
        <g class="Group">
         <g class="Group">
          <g class="com.sun.star.drawing.CustomShape">
           <g id="id23">
            <rect class="BoundingBox" stroke="none" fill="none" x="6795" y="8073" width="1086" height="1128"/>
            <path fill="rgb(255,255,255)" fill-opacity="0.361" stroke="rgb(255,255,255)" stroke-opacity="0.361" d="M 7296,8658 L 6796,8073 7880,9157 7296,8658 Z M 7837,9200 L 7837,9200 Z M 6796,8073 L 6796,8073 Z"/>
           </g>
          </g>
          <g class="com.sun.star.drawing.CustomShape">
           <g id="id24">
            <rect class="BoundingBox" stroke="none" fill="none" x="6793" y="8075" width="1130" height="1087"/>
            <path fill="rgb(255,255,255)" fill-opacity="0.361" stroke="rgb(255,255,255)" stroke-opacity="0.361" d="M 7380,8576 L 6794,8076 7879,9160 7380,8576 Z M 7922,9118 L 7922,9118 Z M 6793,8076 L 6793,8076 Z"/>
           </g>
          </g>
         </g>
         <g class="Group">
          <g class="com.sun.star.drawing.CustomShape">
           <g id="id25">
            <rect class="BoundingBox" stroke="none" fill="none" x="6992" y="8269" width="698" height="723"/>
            <path fill="rgb(255,255,255)" fill-opacity="0.361" stroke="rgb(255,255,255)" stroke-opacity="0.361" d="M 7317,8642 L 6993,8270 7689,8966 7317,8642 Z M 7665,8990 L 7665,8990 Z M 6993,8270 L 6993,8270 Z"/>
           </g>
          </g>
          <g class="com.sun.star.drawing.CustomShape">
           <g id="id26">
            <rect class="BoundingBox" stroke="none" fill="none" x="6987" y="8273" width="726" height="699"/>
            <path fill="rgb(255,255,255)" fill-opacity="0.361" stroke="rgb(255,255,255)" stroke-opacity="0.361" d="M 7363,8595 L 6987,8274 7684,8970 7363,8595 Z M 7711,8942 L 7711,8942 Z M 6987,8274 L 6987,8274 Z"/>
           </g>
          </g>
         </g>
        </g>
       </g>
       <g class="com.sun.star.drawing.CustomShape">
        <g id="id27">
         <rect class="BoundingBox" stroke="none" fill="none" x="7050" y="8327" width="582" height="581"/>
         <path fill="rgb(255,255,255)" fill-opacity="0.502" stroke="rgb(255,255,255)" stroke-opacity="0.502" d="M 7340,8327 C 7504,8327 7630,8452 7630,8616 7630,8780 7504,8906 7340,8906 7176,8906 7050,8780 7050,8616 7050,8452 7176,8327 7340,8327 Z M 7050,8327 L 7050,8327 Z M 7631,8907 L 7631,8907 Z"/>
        </g>
       </g>
       <g class="com.sun.star.drawing.CustomShape">
        <g id="id28">
         <rect class="BoundingBox" stroke="none" fill="none" x="7118" y="8394" width="441" height="440"/>
         <path fill="rgb(255,255,255)" stroke="none" d="M 7337,8395 C 7461,8395 7557,8489 7557,8613 7557,8737 7461,8832 7337,8832 7213,8832 7118,8737 7118,8613 7118,8489 7213,8395 7337,8395 Z M 7118,8395 L 7118,8395 Z M 7558,8833 L 7558,8833 Z"/>
        </g>
       </g>
      </g>
      <g class="Group">
       <g class="Group">
        <g class="Group">
         <g class="com.sun.star.drawing.CustomShape">
          <g id="id29">
           <rect class="BoundingBox" stroke="none" fill="none" x="8421" y="9816" width="2859" height="2753"/>
           <path fill="rgb(255,255,255)" fill-opacity="0.361" stroke="rgb(255,255,255)" stroke-opacity="0.361" d="M 9797,11087 L 11277,9817 8527,12567 9797,11087 Z M 8421,12462 L 8421,12462 Z M 11278,9816 L 11278,9816 Z"/>
          </g>
         </g>
         <g class="com.sun.star.drawing.CustomShape">
          <g id="id30">
           <rect class="BoundingBox" stroke="none" fill="none" x="8530" y="9815" width="2759" height="2864"/>
           <path fill="rgb(255,255,255)" fill-opacity="0.361" stroke="rgb(255,255,255)" stroke-opacity="0.361" d="M 10011,11299 L 11287,9815 8530,12572 10011,11299 Z M 8633,12677 L 8633,12677 Z M 11287,9815 L 11287,9815 Z"/>
          </g>
         </g>
        </g>
        <g class="Group">
         <g class="com.sun.star.drawing.CustomShape">
          <g id="id31">
           <rect class="BoundingBox" stroke="none" fill="none" x="8950" y="10316" width="1831" height="1769"/>
           <path fill="rgb(255,255,255)" fill-opacity="0.361" stroke="rgb(255,255,255)" stroke-opacity="0.361" d="M 9835,11139 L 10780,10316 9012,12084 9835,11139 Z M 8951,12022 L 8951,12022 Z M 10780,10316 L 10780,10316 Z"/>
          </g>
         </g>
         <g class="com.sun.star.drawing.CustomShape">
          <g id="id32">
           <rect class="BoundingBox" stroke="none" fill="none" x="9017" y="10317" width="1767" height="1825"/>
           <path fill="rgb(255,255,255)" fill-opacity="0.361" stroke="rgb(255,255,255)" stroke-opacity="0.361" d="M 9958,11258 L 10783,10317 9018,12082 9958,11258 Z M 9075,12141 L 9075,12141 Z M 10783,10317 L 10783,10317 Z"/>
          </g>
         </g>
        </g>
       </g>
       <g class="Group">
        <g class="Group">
         <g class="com.sun.star.drawing.CustomShape">
          <g id="id33">
           <rect class="BoundingBox" stroke="none" fill="none" x="8525" y="9812" width="2757" height="2866"/>
           <path fill="rgb(255,255,255)" fill-opacity="0.361" stroke="rgb(255,255,255)" stroke-opacity="0.361" d="M 9796,11299 L 8526,9813 11281,12568 9796,11299 Z M 11173,12677 L 11173,12677 Z M 8526,9813 L 8526,9813 Z"/>
          </g>
         </g>
         <g class="com.sun.star.drawing.CustomShape">
          <g id="id34">
           <rect class="BoundingBox" stroke="none" fill="none" x="8529" y="9814" width="2861" height="2756"/>
           <path fill="rgb(255,255,255)" fill-opacity="0.361" stroke="rgb(255,255,255)" stroke-opacity="0.361" d="M 10011,11087 L 8530,9815 11283,12568 10011,11087 Z M 11388,12463 L 11388,12463 Z M 8530,9815 L 8530,9815 Z"/>
          </g>
         </g>
        </g>
        <g class="Group">
         <g class="com.sun.star.drawing.CustomShape">
          <g id="id35">
           <rect class="BoundingBox" stroke="none" fill="none" x="9025" y="10317" width="1768" height="1826"/>
           <path fill="rgb(255,255,255)" fill-opacity="0.361" stroke="rgb(255,255,255)" stroke-opacity="0.361" d="M 9850,11259 L 9026,10317 10792,12083 9850,11259 Z M 10732,12141 L 10732,12141 Z M 9026,10317 L 9026,10317 Z"/>
          </g>
         </g>
         <g class="com.sun.star.drawing.CustomShape">
          <g id="id36">
           <rect class="BoundingBox" stroke="none" fill="none" x="9026" y="10319" width="1829" height="1769"/>
           <path fill="rgb(255,255,255)" fill-opacity="0.361" stroke="rgb(255,255,255)" stroke-opacity="0.361" d="M 9970,11145 L 9026,10319 10793,12087 9970,11145 Z M 10853,12028 L 10853,12028 Z M 9026,10319 L 9026,10319 Z"/>
          </g>
         </g>
        </g>
       </g>
      </g>
      <g class="Group">
       <g class="Group">
        <g class="Group">
         <g class="Group">
          <g class="com.sun.star.drawing.CustomShape">
           <g id="id37">
            <rect class="BoundingBox" stroke="none" fill="none" x="5673" y="10860" width="8486" height="328"/>
            <path fill="rgb(255,255,255)" fill-opacity="0.361" stroke="rgb(255,255,255)" stroke-opacity="0.361" d="M 9915,10860 L 14158,11186 5673,11186 9915,10860 Z M 5673,10860 L 5673,10860 Z M 14158,11186 L 14158,11186 Z"/>
           </g>
          </g>
          <g class="com.sun.star.drawing.CustomShape">
           <g id="id38">
            <rect class="BoundingBox" stroke="none" fill="none" x="5673" y="11182" width="8486" height="330"/>
            <path fill="rgb(255,255,255)" fill-opacity="0.361" stroke="rgb(255,255,255)" stroke-opacity="0.361" d="M 9915,11511 L 14158,11183 5673,11183 9915,11511 Z M 5673,11511 L 5673,11511 Z M 14158,11183 L 14158,11183 Z"/>
           </g>
          </g>
         </g>
         <g class="Group">
          <g class="com.sun.star.drawing.CustomShape">
           <g id="id39">
            <rect class="BoundingBox" stroke="none" fill="none" x="7175" y="10996" width="5437" height="188"/>
            <path fill="rgb(255,255,255)" fill-opacity="0.361" stroke="rgb(255,255,255)" stroke-opacity="0.361" d="M 9893,10996 L 12611,11182 7175,11182 9893,10996 Z M 7175,10996 L 7175,10996 Z M 12611,11182 L 12611,11182 Z"/>
           </g>
          </g>
          <g class="com.sun.star.drawing.CustomShape">
           <g id="id40">
            <rect class="BoundingBox" stroke="none" fill="none" x="7175" y="11181" width="5437" height="187"/>
            <path fill="rgb(255,255,255)" fill-opacity="0.361" stroke="rgb(255,255,255)" stroke-opacity="0.361" d="M 9893,11366 L 12611,11181 7175,11181 9893,11366 Z M 7175,11366 L 7175,11366 Z M 12611,11181 L 12611,11181 Z"/>
           </g>
          </g>
         </g>
        </g>
        <g class="Group">
         <g class="Group">
          <g class="com.sun.star.drawing.CustomShape">
           <g id="id41">
            <rect class="BoundingBox" stroke="none" fill="none" x="9590" y="6943" width="330" height="8484"/>
            <path fill="rgb(255,255,255)" fill-opacity="0.361" stroke="rgb(255,255,255)" stroke-opacity="0.361" d="M 9590,11185 L 9919,6943 9919,15426 9590,11185 Z M 9590,15426 L 9590,15426 Z M 9919,6943 L 9919,6943 Z"/>
           </g>
          </g>
          <g class="com.sun.star.drawing.CustomShape">
           <g id="id42">
            <rect class="BoundingBox" stroke="none" fill="none" x="9915" y="6942" width="329" height="8485"/>
            <path fill="rgb(255,255,255)" fill-opacity="0.361" stroke="rgb(255,255,255)" stroke-opacity="0.361" d="M 10243,11184 L 9915,6942 9915,15426 10243,11184 Z M 10243,15426 L 10243,15426 Z M 9915,6942 L 9915,6942 Z"/>
           </g>
          </g>
         </g>
         <g class="Group">
          <g class="com.sun.star.drawing.CustomShape">
           <g id="id43">
            <rect class="BoundingBox" stroke="none" fill="none" x="9720" y="8489" width="189" height="5436"/>
            <path fill="rgb(255,255,255)" fill-opacity="0.361" stroke="rgb(255,255,255)" stroke-opacity="0.361" d="M 9720,11207 L 9908,8489 9908,13924 9720,11207 Z M 9720,13924 L 9720,13924 Z M 9908,8489 L 9908,8489 Z"/>
           </g>
          </g>
          <g class="com.sun.star.drawing.CustomShape">
           <g id="id44">
            <rect class="BoundingBox" stroke="none" fill="none" x="9908" y="8491" width="187" height="5438"/>
            <path fill="rgb(255,255,255)" fill-opacity="0.361" stroke="rgb(255,255,255)" stroke-opacity="0.361" d="M 10094,11210 L 9909,8491 9909,13928 10094,11210 Z M 10094,13928 L 10094,13928 Z M 9909,8491 L 9909,8491 Z"/>
           </g>
          </g>
         </g>
        </g>
       </g>
       <g class="com.sun.star.drawing.CustomShape">
        <g id="id45">
         <rect class="BoundingBox" stroke="none" fill="none" x="9171" y="10457" width="1476" height="1478"/>
         <path fill="rgb(255,255,255)" fill-opacity="0.502" stroke="rgb(255,255,255)" stroke-opacity="0.502" d="M 9908,10457 C 10325,10457 10645,10776 10645,11194 10645,11612 10325,11932 9908,11932 9491,11932 9172,11612 9172,11194 9172,10776 9491,10457 9908,10457 Z M 9172,10457 L 9172,10457 Z M 10646,11933 L 10646,11933 Z"/>
        </g>
       </g>
       <g class="com.sun.star.drawing.CustomShape">
        <g id="id46">
         <rect class="BoundingBox" stroke="none" fill="none" x="9344" y="10631" width="1118" height="1118"/>
         <path fill="rgb(255,255,255)" stroke="none" d="M 9902,10631 C 10218,10631 10460,10873 10460,11189 10460,11505 10218,11747 9902,11747 9586,11747 9344,11505 9344,11189 9344,10873 9586,10631 9902,10631 Z M 9344,10631 L 9344,10631 Z M 10461,11748 L 10461,11748 Z"/>
        </g>
       </g>
      </g>
      <g class="Group">
       <g class="Group">
        <g class="Group">
         <g class="Group">
          <g class="com.sun.star.drawing.CustomShape">
           <g id="id47">
            <rect class="BoundingBox" stroke="none" fill="none" x="10738" y="13567" width="3342" height="132"/>
            <path fill="rgb(255,255,255)" fill-opacity="0.361" stroke="rgb(255,255,255)" stroke-opacity="0.361" d="M 12408,13567 L 14078,13697 10739,13697 12408,13567 Z M 10739,13567 L 10739,13567 Z M 14079,13697 L 14079,13697 Z"/>
           </g>
          </g>
          <g class="com.sun.star.drawing.CustomShape">
           <g id="id48">
            <rect class="BoundingBox" stroke="none" fill="none" x="10738" y="13696" width="3342" height="130"/>
            <path fill="rgb(255,255,255)" fill-opacity="0.361" stroke="rgb(255,255,255)" stroke-opacity="0.361" d="M 12408,13825 L 14078,13696 10739,13696 12408,13825 Z M 10739,13825 L 10739,13825 Z M 14079,13696 L 14079,13696 Z"/>
           </g>
          </g>
         </g>
         <g class="Group">
          <g class="com.sun.star.drawing.CustomShape">
           <g id="id49">
            <rect class="BoundingBox" stroke="none" fill="none" x="11332" y="13622" width="2139" height="75"/>
            <path fill="rgb(255,255,255)" fill-opacity="0.361" stroke="rgb(255,255,255)" stroke-opacity="0.361" d="M 12401,13623 L 13470,13696 11332,13696 12401,13623 Z M 11332,13623 L 11332,13623 Z M 13470,13696 L 13470,13696 Z"/>
           </g>
          </g>
          <g class="com.sun.star.drawing.CustomShape">
           <g id="id50">
            <rect class="BoundingBox" stroke="none" fill="none" x="11332" y="13692" width="2139" height="75"/>
            <path fill="rgb(255,255,255)" fill-opacity="0.361" stroke="rgb(255,255,255)" stroke-opacity="0.361" d="M 12401,13766 L 13470,13692 11332,13692 12401,13766 Z M 11332,13766 L 11332,13766 Z M 13470,13692 L 13470,13692 Z"/>
           </g>
          </g>
         </g>
        </g>
        <g class="Group">
         <g class="Group">
          <g class="com.sun.star.drawing.CustomShape">
           <g id="id51">
            <rect class="BoundingBox" stroke="none" fill="none" x="12281" y="12024" width="130" height="3341"/>
            <path fill="rgb(255,255,255)" fill-opacity="0.361" stroke="rgb(255,255,255)" stroke-opacity="0.361" d="M 12281,13695 L 12410,12025 12410,15364 12281,13695 Z M 12281,15364 L 12281,15364 Z M 12410,12024 L 12410,12024 Z"/>
           </g>
          </g>
          <g class="com.sun.star.drawing.CustomShape">
           <g id="id52">
            <rect class="BoundingBox" stroke="none" fill="none" x="12406" y="12026" width="134" height="3340"/>
            <path fill="rgb(255,255,255)" fill-opacity="0.361" stroke="rgb(255,255,255)" stroke-opacity="0.361" d="M 12538,13696 L 12406,12027 12406,15365 12538,13696 Z M 12538,15365 L 12538,15365 Z M 12406,12026 L 12406,12026 Z"/>
           </g>
          </g>
         </g>
         <g class="Group">
          <g class="com.sun.star.drawing.CustomShape">
           <g id="id53">
            <rect class="BoundingBox" stroke="none" fill="none" x="12331" y="12634" width="75" height="2140"/>
            <path fill="rgb(255,255,255)" fill-opacity="0.361" stroke="rgb(255,255,255)" stroke-opacity="0.361" d="M 12331,13704 L 12405,12634 12405,14773 12331,13704 Z M 12331,14773 L 12331,14773 Z M 12405,12634 L 12405,12634 Z"/>
           </g>
          </g>
          <g class="com.sun.star.drawing.CustomShape">
           <g id="id54">
            <rect class="BoundingBox" stroke="none" fill="none" x="12404" y="12635" width="78" height="2140"/>
            <path fill="rgb(255,255,255)" fill-opacity="0.361" stroke="rgb(255,255,255)" stroke-opacity="0.361" d="M 12480,13705 L 12404,12635 12404,14774 12480,13705 Z M 12480,14774 L 12480,14774 Z M 12404,12635 L 12404,12635 Z"/>
           </g>
          </g>
         </g>
        </g>
       </g>
       <g class="Group">
        <g class="Group">
         <g class="Group">
          <g class="com.sun.star.drawing.CustomShape">
           <g id="id55">
            <rect class="BoundingBox" stroke="none" fill="none" x="11820" y="13152" width="1130" height="1088"/>
            <path fill="rgb(255,255,255)" fill-opacity="0.361" stroke="rgb(255,255,255)" stroke-opacity="0.361" d="M 12362,13658 L 12948,13153 11862,14238 12362,13658 Z M 11820,14200 L 11820,14200 Z M 12949,13153 L 12949,13153 Z"/>
           </g>
          </g>
          <g class="com.sun.star.drawing.CustomShape">
           <g id="id56">
            <rect class="BoundingBox" stroke="none" fill="none" x="11862" y="13156" width="1086" height="1129"/>
            <path fill="rgb(255,255,255)" fill-opacity="0.361" stroke="rgb(255,255,255)" stroke-opacity="0.361" d="M 12446,13742 L 12946,13156 11863,14240 12446,13742 Z M 11904,14283 L 11904,14283 Z M 12946,13156 L 12946,13156 Z"/>
           </g>
          </g>
         </g>
         <g class="Group">
          <g class="com.sun.star.drawing.CustomShape">
           <g id="id57">
            <rect class="BoundingBox" stroke="none" fill="none" x="12029" y="13353" width="721" height="697"/>
            <path fill="rgb(255,255,255)" fill-opacity="0.361" stroke="rgb(255,255,255)" stroke-opacity="0.361" d="M 12377,13675 L 12749,13354 12054,14048 12377,13675 Z M 12029,14022 L 12029,14022 Z M 12749,13354 L 12749,13354 Z"/>
           </g>
          </g>
          <g class="com.sun.star.drawing.CustomShape">
           <g id="id58">
            <rect class="BoundingBox" stroke="none" fill="none" x="12054" y="13355" width="696" height="721"/>
            <path fill="rgb(255,255,255)" fill-opacity="0.361" stroke="rgb(255,255,255)" stroke-opacity="0.361" d="M 12425,13727 L 12749,13355 12054,14050 12425,13727 Z M 12077,14075 L 12077,14075 Z M 12749,13355 L 12749,13355 Z"/>
           </g>
          </g>
         </g>
        </g>
        <g class="Group">
         <g class="Group">
          <g class="com.sun.star.drawing.CustomShape">
           <g id="id59">
            <rect class="BoundingBox" stroke="none" fill="none" x="11862" y="13154" width="1086" height="1128"/>
            <path fill="rgb(255,255,255)" fill-opacity="0.361" stroke="rgb(255,255,255)" stroke-opacity="0.361" d="M 12363,13739 L 11863,13154 12947,14238 12363,13739 Z M 12904,14281 L 12904,14281 Z M 11863,13154 L 11863,13154 Z"/>
           </g>
          </g>
          <g class="com.sun.star.drawing.CustomShape">
           <g id="id60">
            <rect class="BoundingBox" stroke="none" fill="none" x="11860" y="13156" width="1130" height="1088"/>
            <path fill="rgb(255,255,255)" fill-opacity="0.361" stroke="rgb(255,255,255)" stroke-opacity="0.361" d="M 12447,13658 L 11860,13157 12946,14242 12447,13658 Z M 12989,14200 L 12989,14200 Z M 11860,13157 L 11860,13157 Z"/>
           </g>
          </g>
         </g>
         <g class="Group">
          <g class="com.sun.star.drawing.CustomShape">
           <g id="id61">
            <rect class="BoundingBox" stroke="none" fill="none" x="12058" y="13353" width="697" height="721"/>
            <path fill="rgb(255,255,255)" fill-opacity="0.361" stroke="rgb(255,255,255)" stroke-opacity="0.361" d="M 12382,13725 L 12059,13354 12753,14048 12382,13725 Z M 12729,14072 L 12729,14072 Z M 12059,13354 L 12059,13354 Z"/>
           </g>
          </g>
          <g class="com.sun.star.drawing.CustomShape">
           <g id="id62">
            <rect class="BoundingBox" stroke="none" fill="none" x="12058" y="13354" width="723" height="696"/>
            <path fill="rgb(255,255,255)" fill-opacity="0.361" stroke="rgb(255,255,255)" stroke-opacity="0.361" d="M 12432,13675 L 12058,13354 12753,14049 12432,13675 Z M 12780,14022 L 12780,14022 Z M 12058,13354 L 12058,13354 Z"/>
           </g>
          </g>
         </g>
        </g>
       </g>
       <g class="com.sun.star.drawing.CustomShape">
        <g id="id63">
         <rect class="BoundingBox" stroke="none" fill="none" x="12115" y="13409" width="583" height="581"/>
         <path fill="rgb(255,255,255)" fill-opacity="0.502" stroke="rgb(255,255,255)" stroke-opacity="0.502" d="M 12405,13409 C 12569,13409 12696,13534 12696,13698 12696,13862 12569,13988 12405,13988 12241,13988 12115,13862 12115,13698 12115,13534 12241,13409 12405,13409 Z M 12115,13409 L 12115,13409 Z M 12697,13989 L 12697,13989 Z"/>
        </g>
       </g>
       <g class="com.sun.star.drawing.CustomShape">
        <g id="id64">
         <rect class="BoundingBox" stroke="none" fill="none" x="12185" y="13480" width="441" height="438"/>
         <path fill="rgb(255,255,255)" stroke="none" d="M 12404,13480 C 12528,13480 12624,13575 12624,13698 12624,13821 12528,13916 12404,13916 12280,13916 12185,13821 12185,13698 12185,13575 12280,13480 12404,13480 Z M 12185,13480 L 12185,13480 Z M 12625,13917 L 12625,13917 Z"/>
        </g>
       </g>
      </g>
     </g>
    </g>
   </g>
  </g>
 </g>
</svg>